# xmcd
#
# Track frame offsets: 
#        150
#        16879
#        33495
#        49621
#        67241
#        86967
#        101734
#        129652
#        143929
#        158890
#
# Disc length: 2385 seconds
#
# Revision: 0
# Processed by: cddbd v1.5.2PL0 Copyright (c) Steve Scherf et al.
# Submitted via: ExactAudioCopy v0.99pb5
#
DISCID=8e094f0a
DTITLE=Schoierer Band - Von Pasing bis zum Isartor
DYEAR=1986
DGENRE=Bayernblues
TTITLE0=Millionär
TTITLE1=1/2e 10e in München
TTITLE2=Searchin' Blues
TTITLE3=Rock'n' Roller
TTITLE4=Dann geh I halt
TTITLE5=BMW
TTITLE6=Tag danach
TTITLE7=Titelseite von der Bravo
TTITLE8=Die Beerdigung
TTITLE9=Aus und Vorbei
EXTD=
EXTT0=
EXTT1=
EXTT2=
EXTT3=
EXTT4=
EXTT5=
EXTT6=
EXTT7=
EXTT8=
EXTT9=
PLAYORDER=
